<svg width="72" height="52" viewBox="0 0 72 52" fill="none" xmlns="http://www.w3.org/2000/svg">
<rect width="72" height="51.6522" fill="black"/>
<rect x="1.04346" y="1.04347" width="69.913" height="49.5652" fill="white"/>
<path d="M13.9335 8V3.8H14.9055V7.208H17.0115V8H13.9335ZM19.5243 8.072C19.1923 8.072 18.8843 8.018 18.6003 7.91C18.3203 7.802 18.0763 7.65 17.8683 7.454C17.6643 7.258 17.5043 7.028 17.3883 6.764C17.2763 6.5 17.2203 6.212 17.2203 5.9C17.2203 5.588 17.2763 5.3 17.3883 5.036C17.5043 4.772 17.6663 4.542 17.8743 4.346C18.0823 4.15 18.3263 3.998 18.6063 3.89C18.8863 3.782 19.1903 3.728 19.5183 3.728C19.8503 3.728 20.1543 3.782 20.4303 3.89C20.7103 3.998 20.9523 4.15 21.1563 4.346C21.3643 4.542 21.5263 4.772 21.6423 5.036C21.7583 5.296 21.8163 5.584 21.8163 5.9C21.8163 6.212 21.7583 6.502 21.6423 6.77C21.5263 7.034 21.3643 7.264 21.1563 7.46C20.9523 7.652 20.7103 7.802 20.4303 7.91C20.1543 8.018 19.8523 8.072 19.5243 8.072ZM19.5183 7.244C19.7063 7.244 19.8783 7.212 20.0343 7.148C20.1943 7.084 20.3343 6.992 20.4543 6.872C20.5743 6.752 20.6663 6.61 20.7303 6.446C20.7983 6.282 20.8323 6.1 20.8323 5.9C20.8323 5.7 20.7983 5.518 20.7303 5.354C20.6663 5.19 20.5743 5.048 20.4543 4.928C20.3383 4.808 20.2003 4.716 20.0403 4.652C19.8803 4.588 19.7063 4.556 19.5183 4.556C19.3303 4.556 19.1563 4.588 18.9963 4.652C18.8403 4.716 18.7023 4.808 18.5823 4.928C18.4623 5.048 18.3683 5.19 18.3003 5.354C18.2363 5.518 18.2043 5.7 18.2043 5.9C18.2043 6.096 18.2363 6.278 18.3003 6.446C18.3683 6.61 18.4603 6.752 18.5763 6.872C18.6963 6.992 18.8363 7.084 18.9963 7.148C19.1563 7.212 19.3303 7.244 19.5183 7.244ZM22.5468 8V3.8H24.3648C24.7408 3.8 25.0648 3.862 25.3368 3.986C25.6088 4.106 25.8188 4.28 25.9668 4.508C26.1148 4.736 26.1888 5.008 26.1888 5.324C26.1888 5.636 26.1148 5.906 25.9668 6.134C25.8188 6.358 25.6088 6.53 25.3368 6.65C25.0648 6.77 24.7408 6.83 24.3648 6.83H23.0868L23.5188 6.404V8H22.5468ZM25.2168 8L24.1668 6.476H25.2048L26.2668 8H25.2168ZM23.5188 6.512L23.0868 6.056H24.3108C24.6108 6.056 24.8348 5.992 24.9828 5.864C25.1308 5.732 25.2048 5.552 25.2048 5.324C25.2048 5.092 25.1308 4.912 24.9828 4.784C24.8348 4.656 24.6108 4.592 24.3108 4.592H23.0868L23.5188 4.13V6.512ZM27.8529 5.492H29.8749V6.248H27.8529V5.492ZM27.9249 7.22H30.2109V8H26.9589V3.8H30.1329V4.58H27.9249V7.22ZM30.9843 8V3.8H31.7883L33.5763 6.764H33.1503L34.9083 3.8H35.7063L35.7183 8H34.8063L34.8003 5.198H34.9683L33.5643 7.556H33.1263L31.6923 5.198H31.8963V8H30.9843ZM38.414 8V3.8H39.386V8H38.414ZM40.3828 8V3.8H42.2008C42.5768 3.8 42.9008 3.862 43.1728 3.986C43.4448 4.106 43.6548 4.28 43.8028 4.508C43.9508 4.736 44.0248 5.008 44.0248 5.324C44.0248 5.636 43.9508 5.906 43.8028 6.134C43.6548 6.362 43.4448 6.538 43.1728 6.662C42.9008 6.782 42.5768 6.842 42.2008 6.842H40.9228L41.3548 6.404V8H40.3828ZM41.3548 6.512L40.9228 6.05H42.1468C42.4468 6.05 42.6708 5.986 42.8188 5.858C42.9668 5.73 43.0408 5.552 43.0408 5.324C43.0408 5.092 42.9668 4.912 42.8188 4.784C42.6708 4.656 42.4468 4.592 42.1468 4.592H40.9228L41.3548 4.13V6.512ZM46.1573 8.072C45.8213 8.072 45.4993 8.028 45.1913 7.94C44.8833 7.848 44.6353 7.73 44.4473 7.586L44.7773 6.854C44.9573 6.982 45.1693 7.088 45.4133 7.172C45.6613 7.252 45.9113 7.292 46.1633 7.292C46.3553 7.292 46.5093 7.274 46.6253 7.238C46.7453 7.198 46.8333 7.144 46.8893 7.076C46.9453 7.008 46.9733 6.93 46.9733 6.842C46.9733 6.73 46.9293 6.642 46.8413 6.578C46.7533 6.51 46.6373 6.456 46.4933 6.416C46.3493 6.372 46.1893 6.332 46.0133 6.296C45.8413 6.256 45.6673 6.208 45.4913 6.152C45.3193 6.096 45.1613 6.024 45.0173 5.936C44.8733 5.848 44.7553 5.732 44.6633 5.588C44.5753 5.444 44.5313 5.26 44.5313 5.036C44.5313 4.796 44.5953 4.578 44.7233 4.382C44.8553 4.182 45.0513 4.024 45.3113 3.908C45.5753 3.788 45.9053 3.728 46.3013 3.728C46.5653 3.728 46.8253 3.76 47.0813 3.824C47.3373 3.884 47.5633 3.976 47.7593 4.1L47.4593 4.838C47.2633 4.726 47.0673 4.644 46.8713 4.592C46.6753 4.536 46.4833 4.508 46.2953 4.508C46.1073 4.508 45.9533 4.53 45.8333 4.574C45.7133 4.618 45.6273 4.676 45.5753 4.748C45.5233 4.816 45.4973 4.896 45.4973 4.988C45.4973 5.096 45.5413 5.184 45.6293 5.252C45.7173 5.316 45.8333 5.368 45.9773 5.408C46.1213 5.448 46.2793 5.488 46.4513 5.528C46.6273 5.568 46.8013 5.614 46.9733 5.666C47.1493 5.718 47.3093 5.788 47.4533 5.876C47.5973 5.964 47.7133 6.08 47.8013 6.224C47.8933 6.368 47.9393 6.55 47.9393 6.77C47.9393 7.006 47.8733 7.222 47.7413 7.418C47.6093 7.614 47.4113 7.772 47.1473 7.892C46.8873 8.012 46.5573 8.072 46.1573 8.072ZM50.4695 8.072C49.8735 8.072 49.4075 7.906 49.0715 7.574C48.7355 7.242 48.5675 6.768 48.5675 6.152V3.8H49.5395V6.116C49.5395 6.516 49.6215 6.804 49.7855 6.98C49.9495 7.156 50.1795 7.244 50.4755 7.244C50.7715 7.244 51.0015 7.156 51.1655 6.98C51.3295 6.804 51.4115 6.516 51.4115 6.116V3.8H52.3715V6.152C52.3715 6.768 52.2035 7.242 51.8675 7.574C51.5315 7.906 51.0655 8.072 50.4695 8.072ZM53.332 8V3.8H54.136L55.924 6.764H55.498L57.256 3.8H58.054L58.066 8H57.154L57.148 5.198H57.316L55.912 7.556H55.474L54.04 5.198H54.244V8H53.332Z" fill="black"/>
<rect x="6.25" y="13.235" width="59.5" height="34.5149" fill="#FFFF99" stroke="black" stroke-width="0.5"/>
<path d="M12.456 27V24.2H12.752V26.744H14.32V27H12.456ZM15.5762 27.02C15.3736 27.02 15.1909 26.9747 15.0282 26.884C14.8682 26.7907 14.7416 26.664 14.6482 26.504C14.5549 26.3413 14.5082 26.156 14.5082 25.948C14.5082 25.7373 14.5549 25.552 14.6482 25.392C14.7416 25.232 14.8682 25.1067 15.0282 25.016C15.1882 24.9253 15.3709 24.88 15.5762 24.88C15.7842 24.88 15.9682 24.9253 16.1282 25.016C16.2909 25.1067 16.4176 25.232 16.5082 25.392C16.6016 25.552 16.6482 25.7373 16.6482 25.948C16.6482 26.156 16.6016 26.3413 16.5082 26.504C16.4176 26.664 16.2909 26.7907 16.1282 26.884C15.9656 26.9747 15.7816 27.02 15.5762 27.02ZM15.5762 26.768C15.7282 26.768 15.8629 26.7347 15.9802 26.668C16.0976 26.5987 16.1896 26.5027 16.2562 26.38C16.3256 26.2547 16.3602 26.1107 16.3602 25.948C16.3602 25.7827 16.3256 25.6387 16.2562 25.516C16.1896 25.3933 16.0976 25.2987 15.9802 25.232C15.8629 25.1627 15.7296 25.128 15.5802 25.128C15.4309 25.128 15.2976 25.1627 15.1802 25.232C15.0629 25.2987 14.9696 25.3933 14.9002 25.516C14.8309 25.6387 14.7962 25.7827 14.7962 25.948C14.7962 26.1107 14.8309 26.2547 14.9002 26.38C14.9696 26.5027 15.0629 26.5987 15.1802 26.668C15.2976 26.7347 15.4296 26.768 15.5762 26.768ZM17.228 27V24.9H17.5V25.472L17.472 25.372C17.5307 25.212 17.6294 25.0907 17.768 25.008C17.9067 24.9227 18.0787 24.88 18.284 24.88V25.156C18.2734 25.156 18.2627 25.156 18.252 25.156C18.2414 25.1533 18.2307 25.152 18.22 25.152C17.9987 25.152 17.8254 25.22 17.7 25.356C17.5747 25.4893 17.512 25.68 17.512 25.928V27H17.228ZM19.6747 27.02C19.4561 27.02 19.2641 26.9747 19.0987 26.884C18.9334 26.7907 18.8041 26.664 18.7107 26.504C18.6174 26.3413 18.5707 26.156 18.5707 25.948C18.5707 25.74 18.6147 25.556 18.7027 25.396C18.7934 25.236 18.9161 25.1107 19.0707 25.02C19.2281 24.9267 19.4041 24.88 19.5987 24.88C19.7961 24.88 19.9707 24.9253 20.1227 25.016C20.2774 25.104 20.3987 25.2293 20.4867 25.392C20.5747 25.552 20.6187 25.7373 20.6187 25.948C20.6187 25.9613 20.6174 25.976 20.6147 25.992C20.6147 26.0053 20.6147 26.02 20.6147 26.036H18.7867V25.824H20.4627L20.3507 25.908C20.3507 25.756 20.3174 25.6213 20.2507 25.504C20.1867 25.384 20.0987 25.2907 19.9867 25.224C19.8747 25.1573 19.7454 25.124 19.5987 25.124C19.4547 25.124 19.3254 25.1573 19.2107 25.224C19.0961 25.2907 19.0067 25.384 18.9427 25.504C18.8787 25.624 18.8467 25.7613 18.8467 25.916V25.96C18.8467 26.12 18.8814 26.2613 18.9507 26.384C19.0227 26.504 19.1214 26.5987 19.2467 26.668C19.3747 26.7347 19.5201 26.768 19.6827 26.768C19.8107 26.768 19.9294 26.7453 20.0387 26.7C20.1507 26.6547 20.2467 26.5853 20.3267 26.492L20.4867 26.676C20.3934 26.788 20.2761 26.8733 20.1347 26.932C19.9961 26.9907 19.8427 27.02 19.6747 27.02ZM23.8208 24.88C23.9914 24.88 24.1394 24.9133 24.2648 24.98C24.3928 25.044 24.4914 25.1427 24.5608 25.276C24.6328 25.4093 24.6688 25.5773 24.6688 25.78V27H24.3848V25.808C24.3848 25.5867 24.3314 25.42 24.2248 25.308C24.1208 25.1933 23.9728 25.136 23.7808 25.136C23.6368 25.136 23.5114 25.1667 23.4048 25.228C23.3008 25.2867 23.2194 25.3733 23.1608 25.488C23.1048 25.6 23.0768 25.736 23.0768 25.896V27H22.7928V25.808C22.7928 25.5867 22.7394 25.42 22.6328 25.308C22.5261 25.1933 22.3768 25.136 22.1848 25.136C22.0434 25.136 21.9194 25.1667 21.8128 25.228C21.7061 25.2867 21.6234 25.3733 21.5648 25.488C21.5088 25.6 21.4808 25.736 21.4808 25.896V27H21.1968V24.9H21.4688V25.468L21.4248 25.368C21.4888 25.216 21.5914 25.0973 21.7328 25.012C21.8768 24.924 22.0461 24.88 22.2408 24.88C22.4461 24.88 22.6208 24.932 22.7648 25.036C22.9088 25.1373 23.0021 25.2907 23.0448 25.496L22.9328 25.452C22.9941 25.2813 23.1021 25.144 23.2568 25.04C23.4141 24.9333 23.6021 24.88 23.8208 24.88ZM26.4858 27V24.9H26.7698V27H26.4858ZM26.6298 24.436C26.5712 24.436 26.5218 24.416 26.4818 24.376C26.4418 24.336 26.4218 24.288 26.4218 24.232C26.4218 24.176 26.4418 24.1293 26.4818 24.092C26.5218 24.052 26.5712 24.032 26.6298 24.032C26.6885 24.032 26.7378 24.0507 26.7778 24.088C26.8178 24.1253 26.8378 24.172 26.8378 24.228C26.8378 24.2867 26.8178 24.336 26.7778 24.376C26.7405 24.416 26.6912 24.436 26.6298 24.436ZM28.6441 27.02C28.4627 27.02 28.2987 26.9787 28.1521 26.896C28.0054 26.8107 27.8881 26.6893 27.8001 26.532C27.7147 26.372 27.6721 26.1773 27.6721 25.948C27.6721 25.7187 27.7147 25.5253 27.8001 25.368C27.8854 25.208 28.0014 25.0867 28.1481 25.004C28.2947 24.9213 28.4601 24.88 28.6441 24.88C28.8441 24.88 29.0227 24.9253 29.1801 25.016C29.3401 25.104 29.4654 25.2293 29.5561 25.392C29.6467 25.552 29.6921 25.7373 29.6921 25.948C29.6921 26.1613 29.6467 26.348 29.5561 26.508C29.4654 26.668 29.3401 26.7933 29.1801 26.884C29.0227 26.9747 28.8441 27.02 28.6441 27.02ZM27.5601 27.776V24.9H27.8321V25.532L27.8041 25.952L27.8441 26.376V27.776H27.5601ZM28.6241 26.768C28.7734 26.768 28.9067 26.7347 29.0241 26.668C29.1414 26.5987 29.2347 26.5027 29.3041 26.38C29.3734 26.2547 29.4081 26.1107 29.4081 25.948C29.4081 25.7853 29.3734 25.6427 29.3041 25.52C29.2347 25.3973 29.1414 25.3013 29.0241 25.232C28.9067 25.1627 28.7734 25.128 28.6241 25.128C28.4747 25.128 28.3401 25.1627 28.2201 25.232C28.1027 25.3013 28.0094 25.3973 27.9401 25.52C27.8734 25.6427 27.8401 25.7853 27.8401 25.948C27.8401 26.1107 27.8734 26.2547 27.9401 26.38C28.0094 26.5027 28.1027 26.5987 28.2201 26.668C28.3401 26.7347 28.4747 26.768 28.6241 26.768ZM30.835 27.02C30.6617 27.02 30.4977 26.996 30.343 26.948C30.1883 26.8973 30.067 26.8347 29.979 26.76L30.107 26.536C30.1923 26.6 30.3017 26.656 30.435 26.704C30.5683 26.7493 30.7083 26.772 30.855 26.772C31.055 26.772 31.199 26.7413 31.287 26.68C31.375 26.616 31.419 26.532 31.419 26.428C31.419 26.3507 31.3937 26.2907 31.343 26.248C31.295 26.2027 31.231 26.1693 31.151 26.148C31.071 26.124 30.9817 26.104 30.883 26.088C30.7843 26.072 30.6857 26.0533 30.587 26.032C30.491 26.0107 30.403 25.98 30.323 25.94C30.243 25.8973 30.1777 25.84 30.127 25.768C30.079 25.696 30.055 25.6 30.055 25.48C30.055 25.3653 30.087 25.2627 30.151 25.172C30.215 25.0813 30.3083 25.0107 30.431 24.96C30.5563 24.9067 30.7083 24.88 30.887 24.88C31.023 24.88 31.159 24.8987 31.295 24.936C31.431 24.9707 31.543 25.0173 31.631 25.076L31.507 25.304C31.4137 25.24 31.3137 25.1947 31.207 25.168C31.1003 25.1387 30.9937 25.124 30.887 25.124C30.6977 25.124 30.5577 25.1573 30.467 25.224C30.379 25.288 30.335 25.3707 30.335 25.472C30.335 25.552 30.359 25.6147 30.407 25.66C30.4577 25.7053 30.523 25.7413 30.603 25.768C30.6857 25.792 30.775 25.812 30.871 25.828C30.9697 25.844 31.067 25.864 31.163 25.888C31.2617 25.9093 31.351 25.94 31.431 25.98C31.5137 26.0173 31.579 26.072 31.627 26.144C31.6777 26.2133 31.703 26.3053 31.703 26.42C31.703 26.5427 31.6683 26.6493 31.599 26.74C31.5323 26.828 31.4337 26.8973 31.303 26.948C31.175 26.996 31.019 27.02 30.835 27.02ZM33.0921 27.02C32.9135 27.02 32.7575 26.9867 32.6241 26.92C32.4908 26.8533 32.3868 26.7533 32.3121 26.62C32.2401 26.4867 32.2041 26.32 32.2041 26.12V24.9H32.4881V26.088C32.4881 26.312 32.5428 26.4813 32.6521 26.596C32.7641 26.708 32.9201 26.764 33.1201 26.764C33.2668 26.764 33.3935 26.7347 33.5001 26.676C33.6095 26.6147 33.6921 26.5267 33.7481 26.412C33.8068 26.2973 33.8361 26.16 33.8361 26V24.9H34.1201V27H33.8481V26.424L33.8921 26.528C33.8255 26.6827 33.7215 26.804 33.5801 26.892C33.4415 26.9773 33.2788 27.02 33.0921 27.02ZM37.5356 24.88C37.7063 24.88 37.8543 24.9133 37.9796 24.98C38.1076 25.044 38.2063 25.1427 38.2756 25.276C38.3476 25.4093 38.3836 25.5773 38.3836 25.78V27H38.0996V25.808C38.0996 25.5867 38.0463 25.42 37.9396 25.308C37.8356 25.1933 37.6876 25.136 37.4956 25.136C37.3516 25.136 37.2263 25.1667 37.1196 25.228C37.0156 25.2867 36.9343 25.3733 36.8756 25.488C36.8196 25.6 36.7916 25.736 36.7916 25.896V27H36.5076V25.808C36.5076 25.5867 36.4543 25.42 36.3476 25.308C36.241 25.1933 36.0916 25.136 35.8996 25.136C35.7583 25.136 35.6343 25.1667 35.5276 25.228C35.421 25.2867 35.3383 25.3733 35.2796 25.488C35.2236 25.6 35.1956 25.736 35.1956 25.896V27H34.9116V24.9H35.1836V25.468L35.1396 25.368C35.2036 25.216 35.3063 25.0973 35.4476 25.012C35.5916 24.924 35.761 24.88 35.9556 24.88C36.161 24.88 36.3356 24.932 36.4796 25.036C36.6236 25.1373 36.717 25.2907 36.7596 25.496L36.6476 25.452C36.709 25.2813 36.817 25.144 36.9716 25.04C37.129 24.9333 37.317 24.88 37.5356 24.88ZM41.0367 27.02C40.8367 27.02 40.6567 26.9747 40.4967 26.884C40.3394 26.7933 40.2154 26.668 40.1247 26.508C40.034 26.3453 39.9887 26.1587 39.9887 25.948C39.9887 25.7347 40.034 25.548 40.1247 25.388C40.2154 25.228 40.3394 25.104 40.4967 25.016C40.6567 24.9253 40.8367 24.88 41.0367 24.88C41.2207 24.88 41.3847 24.9213 41.5287 25.004C41.6754 25.0867 41.7914 25.208 41.8767 25.368C41.9647 25.5253 42.0087 25.7187 42.0087 25.948C42.0087 26.1747 41.966 26.368 41.8807 26.528C41.7954 26.688 41.6794 26.8107 41.5327 26.896C41.3887 26.9787 41.2234 27.02 41.0367 27.02ZM41.0567 26.768C41.206 26.768 41.3394 26.7347 41.4567 26.668C41.5767 26.5987 41.67 26.5027 41.7367 26.38C41.806 26.2547 41.8407 26.1107 41.8407 25.948C41.8407 25.7827 41.806 25.6387 41.7367 25.516C41.67 25.3933 41.5767 25.2987 41.4567 25.232C41.3394 25.1627 41.206 25.128 41.0567 25.128C40.91 25.128 40.778 25.1627 40.6607 25.232C40.5434 25.2987 40.45 25.3933 40.3807 25.516C40.3114 25.6387 40.2767 25.7827 40.2767 25.948C40.2767 26.1107 40.3114 26.2547 40.3807 26.38C40.45 26.5027 40.5434 26.5987 40.6607 26.668C40.778 26.7347 40.91 26.768 41.0567 26.768ZM41.8487 27V26.368L41.8767 25.944L41.8367 25.52V24.032H42.1207V27H41.8487ZM43.7676 27.02C43.565 27.02 43.3823 26.9747 43.2196 26.884C43.0596 26.7907 42.933 26.664 42.8396 26.504C42.7463 26.3413 42.6996 26.156 42.6996 25.948C42.6996 25.7373 42.7463 25.552 42.8396 25.392C42.933 25.232 43.0596 25.1067 43.2196 25.016C43.3796 24.9253 43.5623 24.88 43.7676 24.88C43.9756 24.88 44.1596 24.9253 44.3196 25.016C44.4823 25.1067 44.609 25.232 44.6996 25.392C44.793 25.552 44.8396 25.7373 44.8396 25.948C44.8396 26.156 44.793 26.3413 44.6996 26.504C44.609 26.664 44.4823 26.7907 44.3196 26.884C44.157 26.9747 43.973 27.02 43.7676 27.02ZM43.7676 26.768C43.9196 26.768 44.0543 26.7347 44.1716 26.668C44.289 26.5987 44.381 26.5027 44.4476 26.38C44.517 26.2547 44.5516 26.1107 44.5516 25.948C44.5516 25.7827 44.517 25.6387 44.4476 25.516C44.381 25.3933 44.289 25.2987 44.1716 25.232C44.0543 25.1627 43.921 25.128 43.7716 25.128C43.6223 25.128 43.489 25.1627 43.3716 25.232C43.2543 25.2987 43.161 25.3933 43.0916 25.516C43.0223 25.6387 42.9876 25.7827 42.9876 25.948C42.9876 26.1107 43.0223 26.2547 43.0916 26.38C43.161 26.5027 43.2543 26.5987 43.3716 26.668C43.489 26.7347 43.621 26.768 43.7676 26.768ZM45.4194 27V24.032H45.7034V27H45.4194ZM47.3497 27.02C47.147 27.02 46.9643 26.9747 46.8017 26.884C46.6417 26.7907 46.515 26.664 46.4217 26.504C46.3283 26.3413 46.2817 26.156 46.2817 25.948C46.2817 25.7373 46.3283 25.552 46.4217 25.392C46.515 25.232 46.6417 25.1067 46.8017 25.016C46.9617 24.9253 47.1443 24.88 47.3497 24.88C47.5577 24.88 47.7417 24.9253 47.9017 25.016C48.0643 25.1067 48.191 25.232 48.2817 25.392C48.375 25.552 48.4217 25.7373 48.4217 25.948C48.4217 26.156 48.375 26.3413 48.2817 26.504C48.191 26.664 48.0643 26.7907 47.9017 26.884C47.739 26.9747 47.555 27.02 47.3497 27.02ZM47.3497 26.768C47.5017 26.768 47.6363 26.7347 47.7537 26.668C47.871 26.5987 47.963 26.5027 48.0297 26.38C48.099 26.2547 48.1337 26.1107 48.1337 25.948C48.1337 25.7827 48.099 25.6387 48.0297 25.516C47.963 25.3933 47.871 25.2987 47.7537 25.232C47.6363 25.1627 47.503 25.128 47.3537 25.128C47.2043 25.128 47.071 25.1627 46.9537 25.232C46.8363 25.2987 46.743 25.3933 46.6737 25.516C46.6043 25.6387 46.5697 25.7827 46.5697 25.948C46.5697 26.1107 46.6043 26.2547 46.6737 26.38C46.743 26.5027 46.8363 26.5987 46.9537 26.668C47.071 26.7347 47.203 26.768 47.3497 26.768ZM49.0015 27V24.9H49.2735V25.472L49.2455 25.372C49.3041 25.212 49.4028 25.0907 49.5415 25.008C49.6801 24.9227 49.8521 24.88 50.0575 24.88V25.156C50.0468 25.156 50.0361 25.156 50.0255 25.156C50.0148 25.1533 50.0041 25.152 49.9935 25.152C49.7721 25.152 49.5988 25.22 49.4735 25.356C49.3481 25.4893 49.2855 25.68 49.2855 25.928V27H49.0015ZM52.2178 27.02C52.0445 27.02 51.8805 26.996 51.7258 26.948C51.5711 26.8973 51.4498 26.8347 51.3618 26.76L51.4898 26.536C51.5751 26.6 51.6845 26.656 51.8178 26.704C51.9511 26.7493 52.0911 26.772 52.2378 26.772C52.4378 26.772 52.5818 26.7413 52.6698 26.68C52.7578 26.616 52.8018 26.532 52.8018 26.428C52.8018 26.3507 52.7765 26.2907 52.7258 26.248C52.6778 26.2027 52.6138 26.1693 52.5338 26.148C52.4538 26.124 52.3645 26.104 52.2658 26.088C52.1671 26.072 52.0685 26.0533 51.9698 26.032C51.8738 26.0107 51.7858 25.98 51.7058 25.94C51.6258 25.8973 51.5605 25.84 51.5098 25.768C51.4618 25.696 51.4378 25.6 51.4378 25.48C51.4378 25.3653 51.4698 25.2627 51.5338 25.172C51.5978 25.0813 51.6911 25.0107 51.8138 24.96C51.9391 24.9067 52.0911 24.88 52.2698 24.88C52.4058 24.88 52.5418 24.8987 52.6778 24.936C52.8138 24.9707 52.9258 25.0173 53.0138 25.076L52.8898 25.304C52.7965 25.24 52.6965 25.1947 52.5898 25.168C52.4831 25.1387 52.3765 25.124 52.2698 25.124C52.0805 25.124 51.9405 25.1573 51.8498 25.224C51.7618 25.288 51.7178 25.3707 51.7178 25.472C51.7178 25.552 51.7418 25.6147 51.7898 25.66C51.8405 25.7053 51.9058 25.7413 51.9858 25.768C52.0685 25.792 52.1578 25.812 52.2538 25.828C52.3525 25.844 52.4498 25.864 52.5458 25.888C52.6445 25.9093 52.7338 25.94 52.8138 25.98C52.8965 26.0173 52.9618 26.072 53.0098 26.144C53.0605 26.2133 53.0858 26.3053 53.0858 26.42C53.0858 26.5427 53.0511 26.6493 52.9818 26.74C52.9151 26.828 52.8165 26.8973 52.6858 26.948C52.5578 26.996 52.4018 27.02 52.2178 27.02ZM53.6069 27V24.9H53.8909V27H53.6069ZM53.7509 24.436C53.6923 24.436 53.6429 24.416 53.6029 24.376C53.5629 24.336 53.5429 24.288 53.5429 24.232C53.5429 24.176 53.5629 24.1293 53.6029 24.092C53.6429 24.052 53.6923 24.032 53.7509 24.032C53.8096 24.032 53.8589 24.0507 53.8989 24.088C53.9389 24.1253 53.9589 24.172 53.9589 24.228C53.9589 24.2867 53.9389 24.336 53.8989 24.376C53.8616 24.416 53.8123 24.436 53.7509 24.436ZM55.3452 27.02C55.1478 27.02 54.9958 26.9667 54.8892 26.86C54.7825 26.7533 54.7292 26.6027 54.7292 26.408V24.436H55.0132V26.392C55.0132 26.5147 55.0438 26.6093 55.1052 26.676C55.1692 26.7427 55.2598 26.776 55.3772 26.776C55.5025 26.776 55.6065 26.74 55.6892 26.668L55.7892 26.872C55.7332 26.9227 55.6652 26.96 55.5852 26.984C55.5078 27.008 55.4278 27.02 55.3452 27.02ZM54.3532 25.136V24.9H55.6532V25.136H54.3532ZM13.712 32V31.536L13.7 31.46V30.684C13.7 30.5053 13.6493 30.368 13.548 30.272C13.4493 30.176 13.3013 30.128 13.104 30.128C12.968 30.128 12.8387 30.1507 12.716 30.196C12.5933 30.2413 12.4893 30.3013 12.404 30.376L12.276 30.164C12.3827 30.0733 12.5107 30.004 12.66 29.956C12.8093 29.9053 12.9667 29.88 13.132 29.88C13.404 29.88 13.6133 29.948 13.76 30.084C13.9093 30.2173 13.984 30.4213 13.984 30.696V32H13.712ZM12.988 32.02C12.8307 32.02 12.6933 31.9947 12.576 31.944C12.4613 31.8907 12.3733 31.8187 12.312 31.728C12.2507 31.6347 12.22 31.528 12.22 31.408C12.22 31.2987 12.2453 31.2 12.296 31.112C12.3493 31.0213 12.4347 30.9493 12.552 30.896C12.672 30.84 12.832 30.812 13.032 30.812H13.756V31.024H13.04C12.8373 31.024 12.696 31.06 12.616 31.132C12.5387 31.204 12.5 31.2933 12.5 31.4C12.5 31.52 12.5467 31.616 12.64 31.688C12.7333 31.76 12.864 31.796 13.032 31.796C13.192 31.796 13.3293 31.76 13.444 31.688C13.5613 31.6133 13.6467 31.5067 13.7 31.368L13.764 31.564C13.7107 31.7027 13.6173 31.8133 13.484 31.896C13.3533 31.9787 13.188 32.02 12.988 32.02ZM17.3794 29.88C17.55 29.88 17.698 29.9133 17.8234 29.98C17.9514 30.044 18.05 30.1427 18.1194 30.276C18.1914 30.4093 18.2274 30.5773 18.2274 30.78V32H17.9434V30.808C17.9434 30.5867 17.89 30.42 17.7834 30.308C17.6794 30.1933 17.5314 30.136 17.3394 30.136C17.1954 30.136 17.07 30.1667 16.9634 30.228C16.8594 30.2867 16.778 30.3733 16.7194 30.488C16.6634 30.6 16.6354 30.736 16.6354 30.896V32H16.3514V30.808C16.3514 30.5867 16.298 30.42 16.1914 30.308C16.0847 30.1933 15.9354 30.136 15.7434 30.136C15.602 30.136 15.478 30.1667 15.3714 30.228C15.2647 30.2867 15.182 30.3733 15.1234 30.488C15.0674 30.6 15.0394 30.736 15.0394 30.896V32H14.7554V29.9H15.0274V30.468L14.9834 30.368C15.0474 30.216 15.15 30.0973 15.2914 30.012C15.4354 29.924 15.6047 29.88 15.7994 29.88C16.0047 29.88 16.1794 29.932 16.3234 30.036C16.4674 30.1373 16.5607 30.2907 16.6034 30.496L16.4914 30.452C16.5527 30.2813 16.6607 30.144 16.8154 30.04C16.9727 29.9333 17.1607 29.88 17.3794 29.88ZM19.8896 32.02C19.6709 32.02 19.4789 31.9747 19.3136 31.884C19.1482 31.7907 19.0189 31.664 18.9256 31.504C18.8322 31.3413 18.7856 31.156 18.7856 30.948C18.7856 30.74 18.8296 30.556 18.9176 30.396C19.0082 30.236 19.1309 30.1107 19.2856 30.02C19.4429 29.9267 19.6189 29.88 19.8136 29.88C20.0109 29.88 20.1856 29.9253 20.3376 30.016C20.4922 30.104 20.6136 30.2293 20.7016 30.392C20.7896 30.552 20.8336 30.7373 20.8336 30.948C20.8336 30.9613 20.8322 30.976 20.8296 30.992C20.8296 31.0053 20.8296 31.02 20.8296 31.036H19.0016V30.824H20.6776L20.5656 30.908C20.5656 30.756 20.5322 30.6213 20.4656 30.504C20.4016 30.384 20.3136 30.2907 20.2016 30.224C20.0896 30.1573 19.9602 30.124 19.8136 30.124C19.6696 30.124 19.5402 30.1573 19.4256 30.224C19.3109 30.2907 19.2216 30.384 19.1576 30.504C19.0936 30.624 19.0616 30.7613 19.0616 30.916V30.96C19.0616 31.12 19.0962 31.2613 19.1656 31.384C19.2376 31.504 19.3362 31.5987 19.4616 31.668C19.5896 31.7347 19.7349 31.768 19.8976 31.768C20.0256 31.768 20.1442 31.7453 20.2536 31.7C20.3656 31.6547 20.4616 31.5853 20.5416 31.492L20.7016 31.676C20.6082 31.788 20.4909 31.8733 20.3496 31.932C20.2109 31.9907 20.0576 32.02 19.8896 32.02ZM22.0756 32.02C21.8783 32.02 21.7263 31.9667 21.6196 31.86C21.513 31.7533 21.4596 31.6027 21.4596 31.408V29.436H21.7436V31.392C21.7436 31.5147 21.7743 31.6093 21.8356 31.676C21.8996 31.7427 21.9903 31.776 22.1076 31.776C22.233 31.776 22.337 31.74 22.4196 31.668L22.5196 31.872C22.4636 31.9227 22.3956 31.96 22.3156 31.984C22.2383 32.008 22.1583 32.02 22.0756 32.02ZM21.0836 30.136V29.9H22.3836V30.136H21.0836ZM22.9037 32.584L23.0797 31.844L23.1117 32.016C23.0504 32.016 22.9984 31.996 22.9557 31.956C22.9157 31.916 22.8957 31.864 22.8957 31.8C22.8957 31.736 22.9157 31.684 22.9557 31.644C22.9984 31.604 23.049 31.584 23.1077 31.584C23.169 31.584 23.2184 31.6053 23.2557 31.648C23.2957 31.6907 23.3157 31.7413 23.3157 31.8C23.3157 31.8213 23.3144 31.8427 23.3117 31.864C23.309 31.8853 23.3037 31.9093 23.2957 31.936C23.2877 31.9627 23.277 31.9947 23.2637 32.032L23.0957 32.584H22.9037ZM25.8422 32.02C25.6342 32.02 25.4476 31.9747 25.2822 31.884C25.1196 31.7907 24.9916 31.664 24.8982 31.504C24.8049 31.3413 24.7582 31.156 24.7582 30.948C24.7582 30.7373 24.8049 30.552 24.8982 30.392C24.9916 30.232 25.1196 30.1067 25.2822 30.016C25.4476 29.9253 25.6342 29.88 25.8422 29.88C26.0209 29.88 26.1822 29.9147 26.3262 29.984C26.4702 30.0533 26.5836 30.1573 26.6662 30.296L26.4542 30.44C26.3822 30.3333 26.2929 30.2547 26.1862 30.204C26.0796 30.1533 25.9636 30.128 25.8382 30.128C25.6889 30.128 25.5542 30.1627 25.4342 30.232C25.3142 30.2987 25.2196 30.3933 25.1502 30.516C25.0809 30.6387 25.0462 30.7827 25.0462 30.948C25.0462 31.1133 25.0809 31.2573 25.1502 31.38C25.2196 31.5027 25.3142 31.5987 25.4342 31.668C25.5542 31.7347 25.6889 31.768 25.8382 31.768C25.9636 31.768 26.0796 31.7427 26.1862 31.692C26.2929 31.6413 26.3822 31.564 26.4542 31.46L26.6662 31.604C26.5836 31.74 26.4702 31.844 26.3262 31.916C26.1822 31.9853 26.0209 32.02 25.8422 32.02ZM28.045 32.02C27.8423 32.02 27.6596 31.9747 27.497 31.884C27.337 31.7907 27.2103 31.664 27.117 31.504C27.0236 31.3413 26.977 31.156 26.977 30.948C26.977 30.7373 27.0236 30.552 27.117 30.392C27.2103 30.232 27.337 30.1067 27.497 30.016C27.657 29.9253 27.8396 29.88 28.045 29.88C28.253 29.88 28.437 29.9253 28.597 30.016C28.7596 30.1067 28.8863 30.232 28.977 30.392C29.0703 30.552 29.117 30.7373 29.117 30.948C29.117 31.156 29.0703 31.3413 28.977 31.504C28.8863 31.664 28.7596 31.7907 28.597 31.884C28.4343 31.9747 28.2503 32.02 28.045 32.02ZM28.045 31.768C28.197 31.768 28.3316 31.7347 28.449 31.668C28.5663 31.5987 28.6583 31.5027 28.725 31.38C28.7943 31.2547 28.829 31.1107 28.829 30.948C28.829 30.7827 28.7943 30.6387 28.725 30.516C28.6583 30.3933 28.5663 30.2987 28.449 30.232C28.3316 30.1627 28.1983 30.128 28.049 30.128C27.8996 30.128 27.7663 30.1627 27.649 30.232C27.5316 30.2987 27.4383 30.3933 27.369 30.516C27.2996 30.6387 27.265 30.7827 27.265 30.948C27.265 31.1107 27.2996 31.2547 27.369 31.38C27.4383 31.5027 27.5316 31.5987 27.649 31.668C27.7663 31.7347 27.8983 31.768 28.045 31.768ZM30.7688 29.88C30.9394 29.88 31.0888 29.9133 31.2168 29.98C31.3474 30.044 31.4488 30.1427 31.5208 30.276C31.5954 30.4093 31.6328 30.5773 31.6328 30.78V32H31.3488V30.808C31.3488 30.5867 31.2928 30.42 31.1808 30.308C31.0714 30.1933 30.9168 30.136 30.7168 30.136C30.5674 30.136 30.4368 30.1667 30.3248 30.228C30.2154 30.2867 30.1301 30.3733 30.0688 30.488C30.0101 30.6 29.9808 30.736 29.9808 30.896V32H29.6968V29.9H29.9688V30.476L29.9248 30.368C29.9914 30.216 30.0981 30.0973 30.2448 30.012C30.3914 29.924 30.5661 29.88 30.7688 29.88ZM32.9639 32.02C32.7906 32.02 32.6266 31.996 32.4719 31.948C32.3172 31.8973 32.1959 31.8347 32.1079 31.76L32.2359 31.536C32.3212 31.6 32.4306 31.656 32.5639 31.704C32.6972 31.7493 32.8372 31.772 32.9839 31.772C33.1839 31.772 33.3279 31.7413 33.4159 31.68C33.5039 31.616 33.5479 31.532 33.5479 31.428C33.5479 31.3507 33.5226 31.2907 33.4719 31.248C33.4239 31.2027 33.3599 31.1693 33.2799 31.148C33.1999 31.124 33.1106 31.104 33.0119 31.088C32.9132 31.072 32.8146 31.0533 32.7159 31.032C32.6199 31.0107 32.5319 30.98 32.4519 30.94C32.3719 30.8973 32.3066 30.84 32.2559 30.768C32.2079 30.696 32.1839 30.6 32.1839 30.48C32.1839 30.3653 32.2159 30.2627 32.2799 30.172C32.3439 30.0813 32.4372 30.0107 32.5599 29.96C32.6852 29.9067 32.8372 29.88 33.0159 29.88C33.1519 29.88 33.2879 29.8987 33.4239 29.936C33.5599 29.9707 33.6719 30.0173 33.7599 30.076L33.6359 30.304C33.5426 30.24 33.4426 30.1947 33.3359 30.168C33.2292 30.1387 33.1226 30.124 33.0159 30.124C32.8266 30.124 32.6866 30.1573 32.5959 30.224C32.5079 30.288 32.4639 30.3707 32.4639 30.472C32.4639 30.552 32.4879 30.6147 32.5359 30.66C32.5866 30.7053 32.6519 30.7413 32.7319 30.768C32.8146 30.792 32.9039 30.812 32.9999 30.828C33.0986 30.844 33.1959 30.864 33.2919 30.888C33.3906 30.9093 33.4799 30.94 33.5599 30.98C33.6426 31.0173 33.7079 31.072 33.7559 31.144C33.8066 31.2133 33.8319 31.3053 33.8319 31.42C33.8319 31.5427 33.7972 31.6493 33.7279 31.74C33.6612 31.828 33.5626 31.8973 33.4319 31.948C33.3039 31.996 33.1479 32.02 32.9639 32.02ZM35.245 32.02C35.0264 32.02 34.8344 31.9747 34.669 31.884C34.5037 31.7907 34.3744 31.664 34.281 31.504C34.1877 31.3413 34.141 31.156 34.141 30.948C34.141 30.74 34.185 30.556 34.273 30.396C34.3637 30.236 34.4864 30.1107 34.641 30.02C34.7984 29.9267 34.9744 29.88 35.169 29.88C35.3664 29.88 35.541 29.9253 35.693 30.016C35.8477 30.104 35.969 30.2293 36.057 30.392C36.145 30.552 36.189 30.7373 36.189 30.948C36.189 30.9613 36.1877 30.976 36.185 30.992C36.185 31.0053 36.185 31.02 36.185 31.036H34.357V30.824H36.033L35.921 30.908C35.921 30.756 35.8877 30.6213 35.821 30.504C35.757 30.384 35.669 30.2907 35.557 30.224C35.445 30.1573 35.3157 30.124 35.169 30.124C35.025 30.124 34.8957 30.1573 34.781 30.224C34.6664 30.2907 34.577 30.384 34.513 30.504C34.449 30.624 34.417 30.7613 34.417 30.916V30.96C34.417 31.12 34.4517 31.2613 34.521 31.384C34.593 31.504 34.6917 31.5987 34.817 31.668C34.945 31.7347 35.0904 31.768 35.253 31.768C35.381 31.768 35.4997 31.7453 35.609 31.7C35.721 31.6547 35.817 31.5853 35.897 31.492L36.057 31.676C35.9637 31.788 35.8464 31.8733 35.705 31.932C35.5664 31.9907 35.413 32.02 35.245 32.02ZM37.6391 32.02C37.4311 32.02 37.2444 31.9747 37.0791 31.884C36.9164 31.7907 36.7884 31.664 36.6951 31.504C36.6018 31.3413 36.5551 31.156 36.5551 30.948C36.5551 30.7373 36.6018 30.552 36.6951 30.392C36.7884 30.232 36.9164 30.1067 37.0791 30.016C37.2444 29.9253 37.4311 29.88 37.6391 29.88C37.8178 29.88 37.9791 29.9147 38.1231 29.984C38.2671 30.0533 38.3804 30.1573 38.4631 30.296L38.2511 30.44C38.1791 30.3333 38.0898 30.2547 37.9831 30.204C37.8764 30.1533 37.7604 30.128 37.6351 30.128C37.4858 30.128 37.3511 30.1627 37.2311 30.232C37.1111 30.2987 37.0164 30.3933 36.9471 30.516C36.8778 30.6387 36.8431 30.7827 36.8431 30.948C36.8431 31.1133 36.8778 31.2573 36.9471 31.38C37.0164 31.5027 37.1111 31.5987 37.2311 31.668C37.3511 31.7347 37.4858 31.768 37.6351 31.768C37.7604 31.768 37.8764 31.7427 37.9831 31.692C38.0898 31.6413 38.1791 31.564 38.2511 31.46L38.4631 31.604C38.3804 31.74 38.2671 31.844 38.1231 31.916C37.9791 31.9853 37.8178 32.02 37.6391 32.02ZM39.7084 32.02C39.5111 32.02 39.3591 31.9667 39.2524 31.86C39.1458 31.7533 39.0924 31.6027 39.0924 31.408V29.436H39.3764V31.392C39.3764 31.5147 39.4071 31.6093 39.4684 31.676C39.5324 31.7427 39.6231 31.776 39.7404 31.776C39.8658 31.776 39.9698 31.74 40.0524 31.668L40.1524 31.872C40.0964 31.9227 40.0284 31.96 39.9484 31.984C39.8711 32.008 39.7911 32.02 39.7084 32.02ZM38.7164 30.136V29.9H40.0164V30.136H38.7164ZM41.4872 32.02C41.2686 32.02 41.0766 31.9747 40.9112 31.884C40.7459 31.7907 40.6166 31.664 40.5232 31.504C40.4299 31.3413 40.3832 31.156 40.3832 30.948C40.3832 30.74 40.4272 30.556 40.5152 30.396C40.6059 30.236 40.7286 30.1107 40.8832 30.02C41.0406 29.9267 41.2166 29.88 41.4112 29.88C41.6086 29.88 41.7832 29.9253 41.9352 30.016C42.0899 30.104 42.2112 30.2293 42.2992 30.392C42.3872 30.552 42.4312 30.7373 42.4312 30.948C42.4312 30.9613 42.4299 30.976 42.4272 30.992C42.4272 31.0053 42.4272 31.02 42.4272 31.036H40.5992V30.824H42.2752L42.1632 30.908C42.1632 30.756 42.1299 30.6213 42.0632 30.504C41.9992 30.384 41.9112 30.2907 41.7992 30.224C41.6872 30.1573 41.5579 30.124 41.4112 30.124C41.2672 30.124 41.1379 30.1573 41.0232 30.224C40.9086 30.2907 40.8192 30.384 40.7552 30.504C40.6912 30.624 40.6592 30.7613 40.6592 30.916V30.96C40.6592 31.12 40.6939 31.2613 40.7632 31.384C40.8352 31.504 40.9339 31.5987 41.0592 31.668C41.1872 31.7347 41.3326 31.768 41.4952 31.768C41.6232 31.768 41.7419 31.7453 41.8512 31.7C41.9632 31.6547 42.0592 31.5853 42.1392 31.492L42.2992 31.676C42.2059 31.788 42.0886 31.8733 41.9472 31.932C41.8086 31.9907 41.6552 32.02 41.4872 32.02ZM43.6733 32.02C43.4759 32.02 43.3239 31.9667 43.2173 31.86C43.1106 31.7533 43.0573 31.6027 43.0573 31.408V29.436H43.3413V31.392C43.3413 31.5147 43.3719 31.6093 43.4333 31.676C43.4973 31.7427 43.5879 31.776 43.7053 31.776C43.8306 31.776 43.9346 31.74 44.0173 31.668L44.1173 31.872C44.0613 31.9227 43.9933 31.96 43.9133 31.984C43.8359 32.008 43.7559 32.02 43.6733 32.02ZM42.6813 30.136V29.9H43.9813V30.136H42.6813ZM45.5023 32.02C45.3236 32.02 45.1676 31.9867 45.0343 31.92C44.9009 31.8533 44.7969 31.7533 44.7223 31.62C44.6503 31.4867 44.6143 31.32 44.6143 31.12V29.9H44.8983V31.088C44.8983 31.312 44.9529 31.4813 45.0623 31.596C45.1743 31.708 45.3303 31.764 45.5303 31.764C45.6769 31.764 45.8036 31.7347 45.9103 31.676C46.0196 31.6147 46.1023 31.5267 46.1583 31.412C46.2169 31.2973 46.2463 31.16 46.2463 31V29.9H46.5303V32H46.2583V31.424L46.3023 31.528C46.2356 31.6827 46.1316 31.804 45.9903 31.892C45.8516 31.9773 45.6889 32.02 45.5023 32.02ZM47.3218 32V29.9H47.5938V30.472L47.5658 30.372C47.6244 30.212 47.7231 30.0907 47.8618 30.008C48.0004 29.9227 48.1724 29.88 48.3778 29.88V30.156C48.3671 30.156 48.3564 30.156 48.3458 30.156C48.3351 30.1533 48.3244 30.152 48.3138 30.152C48.0924 30.152 47.9191 30.22 47.7938 30.356C47.6684 30.4893 47.6058 30.68 47.6058 30.928V32H47.3218ZM13.712 37V36.536L13.7 36.46V35.684C13.7 35.5053 13.6493 35.368 13.548 35.272C13.4493 35.176 13.3013 35.128 13.104 35.128C12.968 35.128 12.8387 35.1507 12.716 35.196C12.5933 35.2413 12.4893 35.3013 12.404 35.376L12.276 35.164C12.3827 35.0733 12.5107 35.004 12.66 34.956C12.8093 34.9053 12.9667 34.88 13.132 34.88C13.404 34.88 13.6133 34.948 13.76 35.084C13.9093 35.2173 13.984 35.4213 13.984 35.696V37H13.712ZM12.988 37.02C12.8307 37.02 12.6933 36.9947 12.576 36.944C12.4613 36.8907 12.3733 36.8187 12.312 36.728C12.2507 36.6347 12.22 36.528 12.22 36.408C12.22 36.2987 12.2453 36.2 12.296 36.112C12.3493 36.0213 12.4347 35.9493 12.552 35.896C12.672 35.84 12.832 35.812 13.032 35.812H13.756V36.024H13.04C12.8373 36.024 12.696 36.06 12.616 36.132C12.5387 36.204 12.5 36.2933 12.5 36.4C12.5 36.52 12.5467 36.616 12.64 36.688C12.7333 36.76 12.864 36.796 13.032 36.796C13.192 36.796 13.3293 36.76 13.444 36.688C13.5613 36.6133 13.6467 36.5067 13.7 36.368L13.764 36.564C13.7107 36.7027 13.6173 36.8133 13.484 36.896C13.3533 36.9787 13.188 37.02 12.988 37.02ZM15.5914 37.02C15.3914 37.02 15.2114 36.9747 15.0514 36.884C14.894 36.7933 14.77 36.668 14.6794 36.508C14.5887 36.3453 14.5434 36.1587 14.5434 35.948C14.5434 35.7347 14.5887 35.548 14.6794 35.388C14.77 35.228 14.894 35.104 15.0514 35.016C15.2114 34.9253 15.3914 34.88 15.5914 34.88C15.7754 34.88 15.9394 34.9213 16.0834 35.004C16.23 35.0867 16.346 35.208 16.4314 35.368C16.5194 35.5253 16.5634 35.7187 16.5634 35.948C16.5634 36.1747 16.5207 36.368 16.4354 36.528C16.35 36.688 16.234 36.8107 16.0874 36.896C15.9434 36.9787 15.778 37.02 15.5914 37.02ZM15.6114 36.768C15.7607 36.768 15.894 36.7347 16.0114 36.668C16.1314 36.5987 16.2247 36.5027 16.2914 36.38C16.3607 36.2547 16.3954 36.1107 16.3954 35.948C16.3954 35.7827 16.3607 35.6387 16.2914 35.516C16.2247 35.3933 16.1314 35.2987 16.0114 35.232C15.894 35.1627 15.7607 35.128 15.6114 35.128C15.4647 35.128 15.3327 35.1627 15.2154 35.232C15.098 35.2987 15.0047 35.3933 14.9354 35.516C14.866 35.6387 14.8314 35.7827 14.8314 35.948C14.8314 36.1107 14.866 36.2547 14.9354 36.38C15.0047 36.5027 15.098 36.5987 15.2154 36.668C15.3327 36.7347 15.4647 36.768 15.6114 36.768ZM16.4034 37V36.368L16.4314 35.944L16.3914 35.52V34.032H16.6754V37H16.4034ZM17.4663 37V34.9H17.7503V37H17.4663ZM17.6103 34.436C17.5516 34.436 17.5023 34.416 17.4623 34.376C17.4223 34.336 17.4023 34.288 17.4023 34.232C17.4023 34.176 17.4223 34.1293 17.4623 34.092C17.5023 34.052 17.5516 34.032 17.6103 34.032C17.669 34.032 17.7183 34.0507 17.7583 34.088C17.7983 34.1253 17.8183 34.172 17.8183 34.228C17.8183 34.2867 17.7983 34.336 17.7583 34.376C17.721 34.416 17.6716 34.436 17.6103 34.436ZM19.6245 37.02C19.4432 37.02 19.2792 36.9787 19.1325 36.896C18.9859 36.8107 18.8685 36.6893 18.7805 36.532C18.6952 36.372 18.6525 36.1773 18.6525 35.948C18.6525 35.7187 18.6952 35.5253 18.7805 35.368C18.8659 35.208 18.9819 35.0867 19.1285 35.004C19.2752 34.9213 19.4405 34.88 19.6245 34.88C19.8245 34.88 20.0032 34.9253 20.1605 35.016C20.3205 35.104 20.4459 35.2293 20.5365 35.392C20.6272 35.552 20.6725 35.7373 20.6725 35.948C20.6725 36.1613 20.6272 36.348 20.5365 36.508C20.4459 36.668 20.3205 36.7933 20.1605 36.884C20.0032 36.9747 19.8245 37.02 19.6245 37.02ZM18.5405 37.776V34.9H18.8125V35.532L18.7845 35.952L18.8245 36.376V37.776H18.5405ZM19.6045 36.768C19.7539 36.768 19.8872 36.7347 20.0045 36.668C20.1219 36.5987 20.2152 36.5027 20.2845 36.38C20.3539 36.2547 20.3885 36.1107 20.3885 35.948C20.3885 35.7853 20.3539 35.6427 20.2845 35.52C20.2152 35.3973 20.1219 35.3013 20.0045 35.232C19.8872 35.1627 19.7539 35.128 19.6045 35.128C19.4552 35.128 19.3205 35.1627 19.2005 35.232C19.0832 35.3013 18.9899 35.3973 18.9205 35.52C18.8539 35.6427 18.8205 35.7853 18.8205 35.948C18.8205 36.1107 18.8539 36.2547 18.9205 36.38C18.9899 36.5027 19.0832 36.5987 19.2005 36.668C19.3205 36.7347 19.4552 36.768 19.6045 36.768ZM21.2515 37V34.9H21.5355V37H21.2515ZM21.3955 34.436C21.3368 34.436 21.2875 34.416 21.2475 34.376C21.2075 34.336 21.1875 34.288 21.1875 34.232C21.1875 34.176 21.2075 34.1293 21.2475 34.092C21.2875 34.052 21.3368 34.032 21.3955 34.032C21.4541 34.032 21.5035 34.0507 21.5435 34.088C21.5835 34.1253 21.6035 34.172 21.6035 34.228C21.6035 34.2867 21.5835 34.336 21.5435 34.376C21.5061 34.416 21.4568 34.436 21.3955 34.436ZM22.8897 37.02C22.7164 37.02 22.5524 36.996 22.3977 36.948C22.243 36.8973 22.1217 36.8347 22.0337 36.76L22.1617 36.536C22.247 36.6 22.3564 36.656 22.4897 36.704C22.623 36.7493 22.763 36.772 22.9097 36.772C23.1097 36.772 23.2537 36.7413 23.3417 36.68C23.4297 36.616 23.4737 36.532 23.4737 36.428C23.4737 36.3507 23.4484 36.2907 23.3977 36.248C23.3497 36.2027 23.2857 36.1693 23.2057 36.148C23.1257 36.124 23.0364 36.104 22.9377 36.088C22.839 36.072 22.7404 36.0533 22.6417 36.032C22.5457 36.0107 22.4577 35.98 22.3777 35.94C22.2977 35.8973 22.2324 35.84 22.1817 35.768C22.1337 35.696 22.1097 35.6 22.1097 35.48C22.1097 35.3653 22.1417 35.2627 22.2057 35.172C22.2697 35.0813 22.363 35.0107 22.4857 34.96C22.611 34.9067 22.763 34.88 22.9417 34.88C23.0777 34.88 23.2137 34.8987 23.3497 34.936C23.4857 34.9707 23.5977 35.0173 23.6857 35.076L23.5617 35.304C23.4684 35.24 23.3684 35.1947 23.2617 35.168C23.155 35.1387 23.0484 35.124 22.9417 35.124C22.7524 35.124 22.6124 35.1573 22.5217 35.224C22.4337 35.288 22.3897 35.3707 22.3897 35.472C22.3897 35.552 22.4137 35.6147 22.4617 35.66C22.5124 35.7053 22.5777 35.7413 22.6577 35.768C22.7404 35.792 22.8297 35.812 22.9257 35.828C23.0244 35.844 23.1217 35.864 23.2177 35.888C23.3164 35.9093 23.4057 35.94 23.4857 35.98C23.5684 36.0173 23.6337 36.072 23.6817 36.144C23.7324 36.2133 23.7577 36.3053 23.7577 36.42C23.7577 36.5427 23.723 36.6493 23.6537 36.74C23.587 36.828 23.4884 36.8973 23.3577 36.948C23.2297 36.996 23.0737 37.02 22.8897 37.02ZM25.1508 37.02C24.9428 37.02 24.7561 36.9747 24.5908 36.884C24.4281 36.7907 24.3001 36.664 24.2068 36.504C24.1135 36.3413 24.0668 36.156 24.0668 35.948C24.0668 35.7373 24.1135 35.552 24.2068 35.392C24.3001 35.232 24.4281 35.1067 24.5908 35.016C24.7561 34.9253 24.9428 34.88 25.1508 34.88C25.3295 34.88 25.4908 34.9147 25.6348 34.984C25.7788 35.0533 25.8921 35.1573 25.9748 35.296L25.7628 35.44C25.6908 35.3333 25.6015 35.2547 25.4948 35.204C25.3881 35.1533 25.2721 35.128 25.1468 35.128C24.9975 35.128 24.8628 35.1627 24.7428 35.232C24.6228 35.2987 24.5281 35.3933 24.4588 35.516C24.3895 35.6387 24.3548 35.7827 24.3548 35.948C24.3548 36.1133 24.3895 36.2573 24.4588 36.38C24.5281 36.5027 24.6228 36.5987 24.7428 36.668C24.8628 36.7347 24.9975 36.768 25.1468 36.768C25.2721 36.768 25.3881 36.7427 25.4948 36.692C25.6015 36.6413 25.6908 36.564 25.7628 36.46L25.9748 36.604C25.8921 36.74 25.7788 36.844 25.6348 36.916C25.4908 36.9853 25.3295 37.02 25.1508 37.02ZM26.5015 37V34.9H26.7855V37H26.5015ZM26.6455 34.436C26.5868 34.436 26.5375 34.416 26.4975 34.376C26.4575 34.336 26.4375 34.288 26.4375 34.232C26.4375 34.176 26.4575 34.1293 26.4975 34.092C26.5375 34.052 26.5868 34.032 26.6455 34.032C26.7041 34.032 26.7535 34.0507 26.7935 34.088C26.8335 34.1253 26.8535 34.172 26.8535 34.228C26.8535 34.2867 26.8335 34.336 26.7935 34.376C26.7561 34.416 26.7068 34.436 26.6455 34.436ZM28.6477 34.88C28.8184 34.88 28.9677 34.9133 29.0957 34.98C29.2264 35.044 29.3277 35.1427 29.3997 35.276C29.4744 35.4093 29.5117 35.5773 29.5117 35.78V37H29.2277V35.808C29.2277 35.5867 29.1717 35.42 29.0597 35.308C28.9504 35.1933 28.7957 35.136 28.5957 35.136C28.4464 35.136 28.3157 35.1667 28.2037 35.228C28.0944 35.2867 28.009 35.3733 27.9477 35.488C27.889 35.6 27.8597 35.736 27.8597 35.896V37H27.5757V34.9H27.8477V35.476L27.8037 35.368C27.8704 35.216 27.977 35.0973 28.1237 35.012C28.2704 34.924 28.445 34.88 28.6477 34.88ZM31.1748 37.796C30.9828 37.796 30.7988 37.768 30.6228 37.712C30.4468 37.656 30.3041 37.576 30.1948 37.472L30.3388 37.256C30.4375 37.344 30.5588 37.4133 30.7028 37.464C30.8495 37.5173 31.0041 37.544 31.1668 37.544C31.4335 37.544 31.6295 37.4813 31.7548 37.356C31.8801 37.2333 31.9428 37.0413 31.9428 36.78V36.256L31.9828 35.896L31.9548 35.536V34.9H32.2268V36.744C32.2268 37.1067 32.1375 37.372 31.9588 37.54C31.7828 37.7107 31.5215 37.796 31.1748 37.796ZM31.1228 36.92C30.9228 36.92 30.7428 36.8773 30.5828 36.792C30.4228 36.704 30.2961 36.5827 30.2028 36.428C30.1121 36.2733 30.0668 36.096 30.0668 35.896C30.0668 35.696 30.1121 35.52 30.2028 35.368C30.2961 35.2133 30.4228 35.0933 30.5828 35.008C30.7428 34.9227 30.9228 34.88 31.1228 34.88C31.3095 34.88 31.4775 34.9187 31.6268 34.996C31.7761 35.0733 31.8948 35.188 31.9828 35.34C32.0708 35.492 32.1148 35.6773 32.1148 35.896C32.1148 36.1147 32.0708 36.3 31.9828 36.452C31.8948 36.604 31.7761 36.72 31.6268 36.8C31.4775 36.88 31.3095 36.92 31.1228 36.92ZM31.1508 36.668C31.3055 36.668 31.4428 36.636 31.5628 36.572C31.6828 36.5053 31.7775 36.4147 31.8468 36.3C31.9161 36.1827 31.9508 36.048 31.9508 35.896C31.9508 35.744 31.9161 35.6107 31.8468 35.496C31.7775 35.3813 31.6828 35.292 31.5628 35.228C31.4428 35.1613 31.3055 35.128 31.1508 35.128C30.9988 35.128 30.8615 35.1613 30.7388 35.228C30.6188 35.292 30.5241 35.3813 30.4548 35.496C30.3881 35.6107 30.3548 35.744 30.3548 35.896C30.3548 36.048 30.3881 36.1827 30.4548 36.3C30.5241 36.4147 30.6188 36.5053 30.7388 36.572C30.8615 36.636 30.9988 36.668 31.1508 36.668ZM34.956 37.02C34.7373 37.02 34.5453 36.9747 34.38 36.884C34.2146 36.7907 34.0853 36.664 33.992 36.504C33.8986 36.3413 33.852 36.156 33.852 35.948C33.852 35.74 33.896 35.556 33.984 35.396C34.0746 35.236 34.1973 35.1107 34.352 35.02C34.5093 34.9267 34.6853 34.88 34.88 34.88C35.0773 34.88 35.252 34.9253 35.404 35.016C35.5586 35.104 35.68 35.2293 35.768 35.392C35.856 35.552 35.9 35.7373 35.9 35.948C35.9 35.9613 35.8986 35.976 35.896 35.992C35.896 36.0053 35.896 36.02 35.896 36.036H34.068V35.824H35.744L35.632 35.908C35.632 35.756 35.5986 35.6213 35.532 35.504C35.468 35.384 35.38 35.2907 35.268 35.224C35.156 35.1573 35.0266 35.124 34.88 35.124C34.736 35.124 34.6066 35.1573 34.492 35.224C34.3773 35.2907 34.288 35.384 34.224 35.504C34.16 35.624 34.128 35.7613 34.128 35.916V35.96C34.128 36.12 34.1626 36.2613 34.232 36.384C34.304 36.504 34.4026 36.5987 34.528 36.668C34.656 36.7347 34.8013 36.768 34.964 36.768C35.092 36.768 35.2106 36.7453 35.32 36.7C35.432 36.6547 35.528 36.5853 35.608 36.492L35.768 36.676C35.6746 36.788 35.5573 36.8733 35.416 36.932C35.2773 36.9907 35.124 37.02 34.956 37.02ZM36.478 37V34.032H36.762V37H36.478ZM37.5523 37V34.9H37.8363V37H37.5523ZM37.6963 34.436C37.6376 34.436 37.5883 34.416 37.5483 34.376C37.5083 34.336 37.4883 34.288 37.4883 34.232C37.4883 34.176 37.5083 34.1293 37.5483 34.092C37.5883 34.052 37.6376 34.032 37.6963 34.032C37.7549 34.032 37.8043 34.0507 37.8443 34.088C37.8843 34.1253 37.9043 34.172 37.9043 34.228C37.9043 34.2867 37.8843 34.336 37.8443 34.376C37.8069 34.416 37.7576 34.436 37.6963 34.436ZM39.2905 37.02C39.0931 37.02 38.9411 36.9667 38.8345 36.86C38.7278 36.7533 38.6745 36.6027 38.6745 36.408V34.436H38.9585V36.392C38.9585 36.5147 38.9891 36.6093 39.0505 36.676C39.1145 36.7427 39.2051 36.776 39.3225 36.776C39.4478 36.776 39.5518 36.74 39.6345 36.668L39.7345 36.872C39.6785 36.9227 39.6105 36.96 39.5305 36.984C39.4531 37.008 39.3731 37.02 39.2905 37.02ZM38.2985 35.136V34.9H39.5985V35.136H38.2985ZM40.3185 37.02C40.2599 37.02 40.2092 36.9987 40.1665 36.956C40.1265 36.9133 40.1065 36.8613 40.1065 36.8C40.1065 36.736 40.1265 36.684 40.1665 36.644C40.2092 36.604 40.2599 36.584 40.3185 36.584C40.3772 36.584 40.4265 36.604 40.4665 36.644C40.5092 36.684 40.5305 36.736 40.5305 36.8C40.5305 36.8613 40.5092 36.9133 40.4665 36.956C40.4265 36.9987 40.3772 37.02 40.3185 37.02Z" fill="black"/>
</svg>
